<svg width="309" height="325" viewBox="0 0 309 325" fill="none" xmlns="http://www.w3.org/2000/svg">
<g clip-path="url(#clip0_2962_21137)">
<path d="M141.826 0.634735C127.453 2.2872 112.804 5.74088 103.251 18.9829C102.591 19.8983 101.48 20.4135 100.355 20.3248C60.886 17.213 46.7937 56.3073 40.3751 89.3115C39.1681 95.4687 38.9871 98.1982 38.9267 117.114C38.806 137.363 38.7457 138.252 37.2972 144.092C35.4867 151.138 32.107 158.882 25.7097 170.371C18.2865 183.701 15.7517 191.763 15.2689 203.442C14.7861 214.932 16.2949 221.787 23.2957 240.576C25.2269 245.781 25.5287 247.305 25.5287 251.685C25.5287 256.382 25.2873 257.397 22.4507 264.634C18.7089 274.028 17.683 279.106 18.6486 283.804C19.9763 290.342 24.5027 296.562 29.9947 299.482C33.7968 301.577 38.7457 302.148 52.3248 302.148H65.1796V311.987C65.1796 321.636 65.24 321.89 66.6884 323.413C69.5853 326.523 73.8099 324.873 74.4738 320.43C74.6548 319.287 74.8962 312.876 75.0773 306.274C75.4394 293.262 76.1033 288.501 79.1812 278.154L81.1125 271.616L79.8451 269.902C78.5777 268.062 76.8275 267.49 74.4134 268.188C73.3271 268.442 72.5425 269.521 71.5166 271.934C70.0078 275.552 67.3523 285.391 66.6884 289.897L66.266 292.627H52.7472C36.6333 292.627 34.5814 292.246 31.0207 288.437C26.3132 283.55 26.1925 279.043 30.4775 269.141C33.7365 261.523 34.5814 257.144 34.2193 249.78C33.9779 244.258 33.6158 242.353 31.081 235.181C24.8648 217.153 24.563 216.074 24.2613 208.076C23.8388 196.206 26.3736 187.383 34.0986 173.862C41.2804 161.357 44.7205 153.042 46.8328 143.076C47.738 138.887 47.9191 134.634 47.9794 116.797C48.0398 93.8818 48.1605 92.4853 51.6005 81.5674C59.1866 57.5684 82.3391 26.6353 103.878 31.2125C104.607 31.3673 105.374 31.1575 105.895 30.6256C128.136 7.92844 175.621 5.23987 208.756 22.9785C213.222 25.3271 217.205 27.2949 217.628 27.2949C219.318 27.2949 221.671 24.375 221.671 22.2168C221.671 19.4873 220.102 18.1543 211.532 13.6474C200.186 7.74411 187.814 3.61813 175.14 1.52341C168.019 0.380829 148.887 -0.126984 141.826 0.634735Z" fill="#4E765C"/>
<path d="M235.13 35.6104C233.983 36.5625 233.561 37.5146 233.561 39.1016C233.561 40.8789 234.285 42.085 237.845 46.1475C247.743 57.5732 255.468 72.7441 259.331 88.4863C260.9 94.7705 260.96 95.3418 261.02 116.162C261.081 138.633 261.322 141.172 264.159 150.757C265.788 156.279 269.952 165.42 273.875 172.148C277.617 178.56 281.057 185.986 282.807 191.509C286.187 201.919 285.282 215.186 280.393 228.516C276.108 240.068 275.203 242.988 274.539 247.749C273.694 253.843 274.72 259.619 278.221 268.188C282.807 279.551 282.747 283.423 277.979 288.438C274.419 292.246 272.367 292.627 256.313 292.627H242.794L241.768 287.231C239.596 275.552 234.768 263.555 227.887 252.954C224.447 247.622 213.826 235.562 209.782 232.388L208.032 230.991L211.23 227.69C218.412 220.327 225.413 209.409 229.034 200.015L230.784 195.381L234.164 195.762C243.519 196.904 253.477 190.874 257.58 181.67C259.029 178.496 259.21 177.29 259.21 171.704C259.21 165.991 259.029 164.976 257.52 161.865C253.778 154.248 246.415 148.662 239.173 148.027L235.371 147.71V131.396C235.371 112.988 235.009 110.513 231.448 106.196C228.068 102.007 225.534 101.118 215.757 100.674C206.282 100.293 199.643 98.833 194.815 96.04C193.185 95.0879 189.202 91.9141 186.003 89.0576C179.244 82.9004 172.424 79.0283 166.751 78.1396C164.699 77.8223 158 77.6953 151.905 77.8857C132.894 78.5205 124.867 75.5371 118.349 65.4443C115.754 61.4453 115.03 60.9375 111.892 60.9375C109.478 60.9375 107.003 63.0957 106.641 65.5078C104.77 76.1719 104.046 79.0283 102.356 82.8369C100.123 87.7246 96.6228 91.9775 93.1224 93.8818C91.855 94.5166 88.6564 95.9766 86.0009 97.0557C80.5693 99.2139 77.1292 102.261 75.3791 106.323C74.3531 108.608 74.2324 110.83 74.2324 128.286V147.71L70.2492 148.091C57.3943 149.17 47.4363 162.881 50.0314 176.021C51.0574 181.416 53.2904 185.479 57.4546 189.478C62.1017 194.048 66.2056 195.635 73.2668 195.762L78.5777 195.825L80.8107 201.221C84.6128 210.488 90.1652 219.248 97.1056 226.802L101.028 231.118L98.6144 233.086C94.5709 236.45 84.975 247.051 84.1904 249.019C83.2248 251.431 83.6472 252.954 85.5785 254.541C87.8718 256.509 89.5617 256.128 92.0964 253.081C96.2607 248.257 103.563 240.957 106.038 239.116L108.512 237.339L114.064 240.767C117.082 242.671 121.608 245.083 124.083 246.035L128.549 247.876V255.874C128.549 268.569 130.178 274.473 135.248 280.249C141.162 286.978 147.439 289.707 156.069 289.326C160.837 289.136 162.104 288.818 165.725 286.914C171.097 284.121 175.442 279.551 178.097 273.901C180.089 269.521 180.149 269.331 180.451 258.73L180.753 248.066L186.064 245.654C188.961 244.321 193.306 242.036 195.72 240.513C198.074 238.989 200.246 237.593 200.548 237.529C201.272 237.148 209.118 244.194 213.403 249.019C220.645 257.207 227.284 269.077 230.483 279.424C233.379 288.564 234.224 294.912 234.586 309.004C234.949 322.461 234.949 322.524 236.457 323.73C238.328 325.317 240.26 325.317 242.07 323.794C243.458 322.588 243.519 322.207 243.7 312.368L243.881 302.148H256.735C274.419 302.148 278.281 301.26 283.894 295.801C288.963 290.85 291.377 283.677 290.351 276.631C289.989 274.6 288.36 269.268 286.61 264.824C283.713 257.461 283.471 256.318 283.471 251.685C283.471 247.305 283.773 245.781 285.704 240.576C292.765 221.66 294.214 214.868 293.731 203.442C293.248 191.318 290.412 182.749 281.781 167.388C276.108 157.295 273.634 151.646 271.703 144.155C270.134 138.188 271.582 141.091 271.703 123C271.823 103.005 270.013 94.834 267.357 84.1064C263.374 67.8564 255.166 51.9238 244.544 39.6729C239.596 33.96 237.966 33.2617 235.13 35.6104ZM124.022 82.9004C131.989 86.8994 133.86 87.2168 150.879 87.2803C169.165 87.4072 170.131 87.6611 177.735 94.2627C188.961 103.975 192.642 106.323 199.583 108.228C203.747 109.37 212.377 110.449 218.05 110.449C226.56 110.449 226.318 109.497 226.318 141.68C226.318 167.832 225.956 175.322 224.206 183.765C222.154 193.604 218.231 203.315 213.041 211.44C207.247 220.518 195.479 230.801 185.762 235.435C168.622 243.623 148.404 244.639 130.601 238.354C118.591 234.102 107.245 225.913 99.8214 216.201C91.3119 205.029 86.9062 194.492 84.4921 179.766C83.4058 173.228 83.2851 169.419 83.2851 141.299V110.005L84.6732 108.672C85.3974 107.91 88.415 106.323 91.3722 105.054C101.028 100.991 106.158 96.3574 110.081 88.1689C111.168 85.8838 112.556 82.1387 113.159 79.79L114.245 75.6006L117.022 78.2031C118.53 79.5996 121.729 81.7578 124.022 82.9004ZM74.2324 165.229C74.2324 172.275 75.0169 182.114 75.8015 184.844C76.2843 186.494 72.6029 186.938 68.6197 185.732C62.3431 183.828 57.9375 176.846 58.7824 170.244C59.1445 167.197 61.2568 162.944 63.188 161.04C65.3003 159.072 69.0421 157.485 71.6976 157.422H74.2324V165.229ZM240.863 158.374C253.778 163.008 253.597 181.606 240.561 185.669C234.043 187.7 233.319 187.129 234.104 180.21C234.405 177.29 234.888 170.942 235.069 166.118C235.552 156.216 235.431 156.406 240.863 158.374ZM147.741 252.065C154.138 252.764 165.243 252.256 170.071 250.923C171.398 250.605 171.398 250.605 171.398 258.477C171.398 266.094 162.49 263.936 160.68 267.744C157.481 274.409 160.656 280.313 153.353 279.805C148.525 279.424 150.818 271.426 147.741 267.744C144.542 263.936 138.084 267.681 137.722 258.73L137.481 250.542L139.171 250.923C140.136 251.113 143.999 251.685 147.741 252.065Z" fill="#4E765C"/>
<path d="M137.602 117.178C134.041 119.145 131.204 120.225 128.247 120.732C123.6 121.494 122.634 122.002 121.85 124.351C121.065 126.509 122.212 129.175 124.264 130.127C129.152 132.222 145.689 125.684 147.801 120.796C148.767 118.638 147.801 115.972 145.689 114.956C143.576 113.94 143.335 114.004 137.602 117.178Z" fill="#4E765C"/>
<path d="M164.458 115.587C161.441 118.697 162.829 121.681 168.743 125.172C176.408 129.679 185.581 131.456 188.237 128.98C189.745 127.52 189.987 123.458 188.599 122.252C188.116 121.808 185.762 121.109 183.348 120.602C180.632 120.094 176.891 118.634 173.511 116.856C170.493 115.27 167.596 114 166.993 114C166.389 114 165.243 114.698 164.458 115.587Z" fill="#4E765C"/>
<path d="M163.967 143.838C162.458 145.425 162.458 145.552 162.7 153.169C163.183 165.674 166.321 171.704 174.529 175.957C178.21 177.861 178.995 178.052 184.306 178.052C189.254 178.052 190.522 177.798 193.419 176.401C201.868 172.212 206.032 163.96 206.032 151.201C206.032 145.806 213.047 143.838 210.572 143.267C209.124 142.949 200.057 142.378 198.85 143.267C197.342 144.473 197.281 144.917 196.919 151.772C196.678 155.771 196.195 159.834 195.833 160.913C194.867 163.452 192.332 166.182 189.496 167.705C186.116 169.546 180.503 169.102 177.124 166.753C173.201 164.023 172.054 160.977 171.692 152.153C171.33 145.234 171.209 144.536 169.882 143.394C167.95 141.743 165.838 141.87 163.967 143.838Z" fill="#4E765C"/>
<path d="M146.965 143.838C148.474 145.425 148.474 145.552 148.232 153.169C147.749 165.674 144.611 171.704 136.403 175.957C132.722 177.861 131.937 178.052 126.626 178.052C121.677 178.052 120.41 177.798 117.513 176.401C109.064 172.212 104.9 163.96 104.9 151.201C104.9 145.806 97.8851 143.838 100.359 143.267C101.808 142.949 110.874 142.378 112.082 143.267C113.59 144.473 113.651 144.917 114.013 151.772C114.254 155.771 114.737 159.834 115.099 160.913C116.065 163.452 118.599 166.182 121.436 167.705C124.816 169.546 130.428 169.102 133.808 166.753C137.731 164.023 138.878 160.977 139.24 152.153C139.602 145.234 139.723 144.536 141.05 143.394C142.982 141.743 145.094 141.87 146.965 143.838Z" fill="#4E765C"/>
<path d="M149.366 194.298C146.542 193.325 145.148 192.508 143.278 190.679C141.995 189.434 141.665 188.85 141.665 187.799C141.665 184.997 144.378 184.063 146.542 186.087C151.053 190.29 157.947 190.29 162.458 186.087C164.622 184.063 167.335 184.997 167.335 187.799C167.335 190.056 163.741 193.014 159.304 194.415C156.664 195.232 151.97 195.193 149.366 194.298Z" fill="#4E765C"/>
<path d="M145.781 203.145C141.134 204.732 138.841 206.065 135.763 209.048C133.651 211.079 133.108 212.031 133.108 213.745C133.108 218.316 137.574 219.839 141.134 216.538C148.558 209.683 159.904 209.683 167.327 216.538C170.888 219.839 175.354 218.316 175.354 213.745C175.354 210.064 169.439 205.239 162.137 202.954C157.791 201.621 150.066 201.685 145.781 203.145Z" fill="#4E765C"/>
<ellipse cx="181.121" cy="187.5" rx="1.42615" ry="1.5" fill="#FF9900"/>
<ellipse cx="183.974" cy="193.5" rx="1.42615" ry="1.5" fill="#FF9900"/>
<ellipse cx="186.826" cy="188.5" rx="1.42615" ry="1.5" fill="#FF9900"/>
<ellipse cx="189.679" cy="194.5" rx="1.42615" ry="1.5" fill="#FF9900"/>
<ellipse cx="192.531" cy="186.5" rx="1.42615" ry="1.5" fill="#FF9900"/>
<ellipse cx="195.383" cy="192.5" rx="1.42615" ry="1.5" fill="#FF9900"/>
<ellipse cx="198.235" cy="188.5" rx="1.42615" ry="1.5" fill="#FF9900"/>
<ellipse cx="201.088" cy="194.5" rx="1.42615" ry="1.5" fill="#FF9900"/>
<ellipse cx="240.545" cy="196" rx="6.65538" ry="7" fill="#FF9900"/>
<ellipse cx="68.4554" cy="196" rx="6.65538" ry="7" fill="#FF9900"/>
<ellipse cx="1.42615" cy="1.5" rx="1.42615" ry="1.5" transform="matrix(-1 0 0 1 132.157 186)" fill="#FF9900"/>
<ellipse cx="1.42615" cy="1.5" rx="1.42615" ry="1.5" transform="matrix(-1 0 0 1 129.305 192)" fill="#FF9900"/>
<ellipse cx="1.42615" cy="1.5" rx="1.42615" ry="1.5" transform="matrix(-1 0 0 1 126.452 187)" fill="#FF9900"/>
<ellipse cx="1.42615" cy="1.5" rx="1.42615" ry="1.5" transform="matrix(-1 0 0 1 123.6 193)" fill="#FF9900"/>
<ellipse cx="1.42615" cy="1.5" rx="1.42615" ry="1.5" transform="matrix(-1 0 0 1 120.748 185)" fill="#FF9900"/>
<ellipse cx="1.42615" cy="1.5" rx="1.42615" ry="1.5" transform="matrix(-1 0 0 1 117.896 191)" fill="#FF9900"/>
<ellipse cx="1.42615" cy="1.5" rx="1.42615" ry="1.5" transform="matrix(-1 0 0 1 115.043 187)" fill="#FF9900"/>
<ellipse cx="1.42615" cy="1.5" rx="1.42615" ry="1.5" transform="matrix(-1 0 0 1 112.191 193)" fill="#FF9900"/>
</g>
<defs>
<clipPath id="clip0_2962_21137">
<rect width="309" height="325" fill="white"/>
</clipPath>
</defs>
</svg>
