<svg width="16" height="15" viewBox="0 0 16 15" fill="green" xmlns="http://www.w3.org/2000/svg">
<path d="M11.2125 1.375C12.0359 1.39467 12.8178 1.73987 13.3872 2.33498C13.9565 2.93009 14.2668 3.72658 14.25 4.55C14.25 8.425 9.70625 11.8625 8 13.0125C6.29375 11.8563 1.75 8.41875 1.75 4.55C1.73323 3.72658 2.04349 2.93009 2.61283 2.33498C3.18216 1.73987 3.96415 1.39467 4.7875 1.375C5.21905 1.37779 5.64485 1.47424 6.03548 1.65768C6.42611 1.84113 6.77226 2.1072 7.05 2.4375L8 3.5625L8.95 2.44375C9.22715 2.1123 9.57304 1.84506 9.9637 1.66052C10.3544 1.47598 10.7805 1.37856 11.2125 1.375ZM11.2125 0.125C10.6003 0.126943 9.99578 0.262121 9.44103 0.521149C8.88628 0.780176 8.39456 1.15684 8 1.625C7.60545 1.15684 7.11372 0.780176 6.55897 0.521149C6.00422 0.262121 5.39974 0.126943 4.7875 0.125C4.21541 0.133957 3.65069 0.255527 3.12558 0.482766C2.60048 0.710004 2.12529 1.03846 1.72714 1.44937C1.329 1.86029 1.0157 2.34561 0.805146 2.87762C0.59459 3.40963 0.490902 3.97791 0.500002 4.55C0.500002 10.075 8 14.5 8 14.5C8 14.5 15.5 10.075 15.5 4.55C15.5091 3.97791 15.4054 3.40963 15.1949 2.87762C14.9843 2.34561 14.671 1.86029 14.2729 1.44937C13.8747 1.03846 13.3995 0.710004 12.8744 0.482766C12.3493 0.255527 11.7846 0.133957 11.2125 0.125Z" fill="#FF9900"/>
</svg>
