<svg width="27" height="24" viewBox="0 0 27 24" fill="none" xmlns="http://www.w3.org/2000/svg">
<path d="M25.6059 12.4219C26.0259 11.8874 26.2529 11.2266 26.25 10.5469C26.249 9.7391 25.9277 8.96469 25.3565 8.39351C24.7853 7.82232 24.0109 7.50099 23.2031 7.5H19.4128C19.5092 6.87953 19.5602 6.25288 19.5656 5.625C19.5656 3.66281 18.3375 0 15.375 0C15.1765 0.00071191 14.9786 0.0217593 14.7844 0.0628125C12.3 0.584063 12.5972 2.68125 12.7781 3.9375C12.8608 4.38339 12.8923 4.83728 12.8719 5.29031C12.1866 6.90223 11.3184 8.43006 10.2844 9.84375H9.375V8.4375C9.375 7.94022 9.17746 7.46331 8.82582 7.11167C8.47419 6.76004 7.99728 6.5625 7.5 6.5625H0V23.4375H7.5C7.99728 23.4375 8.47419 23.24 8.82582 22.8883C9.17746 22.5367 9.375 22.0598 9.375 21.5625V21.0938H10.1841C10.4403 21.5211 10.8025 21.875 11.2356 22.1214C11.6687 22.3678 12.158 22.4982 12.6562 22.5H21.7969C22.2843 22.5 22.7645 22.3831 23.1974 22.159C23.6302 21.9349 24.0029 21.6103 24.2843 21.2123C24.5656 20.8143 24.7473 20.3546 24.8142 19.8718C24.881 19.389 24.8311 18.8973 24.6684 18.4378C25.0883 17.9032 25.3152 17.2425 25.3125 16.5628C25.3116 16.1591 25.231 15.7596 25.0753 15.3872C25.4132 14.9813 25.6397 14.4945 25.7327 13.9747C25.8258 13.4548 25.7821 12.9197 25.6059 12.4219ZM7.5 21.5625H1.875V8.4375H7.5V21.5625ZM24.1313 11.2641L23.4947 12.075L23.8387 13.0472C23.9057 13.2387 23.9221 13.4443 23.8863 13.644C23.8505 13.8437 23.7637 14.0308 23.6344 14.1872L22.905 15.0628L23.3456 16.1128C23.4075 16.2574 23.4394 16.413 23.4394 16.5703C23.44 16.8275 23.3542 17.0775 23.1956 17.28L22.5591 18.09L22.9031 19.0622C22.9473 19.1878 22.9698 19.32 22.9697 19.4531C22.9697 19.6071 22.9393 19.7596 22.8804 19.9018C22.8214 20.044 22.735 20.1733 22.6261 20.2821C22.5172 20.3909 22.3879 20.4772 22.2456 20.5361C22.1033 20.5949 21.9508 20.6251 21.7969 20.625H12.6628C12.4876 20.6239 12.3155 20.5777 12.1632 20.4911C12.0109 20.4044 11.8833 20.2801 11.7928 20.13L11.25 19.2188H9.375V11.7188H11.2819L11.8387 10.8919C12.8578 9.37969 14.5894 6.67312 14.7347 5.5275L14.745 5.44875V5.37C14.7693 4.78859 14.7291 4.20628 14.625 3.63375C14.4 2.05781 14.565 2.02406 15.1678 1.8975C15.2358 1.88244 15.3053 1.8749 15.375 1.875C16.875 1.875 17.6906 4.35281 17.6906 5.60906C17.6859 6.14561 17.642 6.68109 17.5594 7.21125L17.2228 9.375H23.2013C23.5132 9.37599 23.812 9.50075 24.0321 9.72187C24.2522 9.94299 24.3755 10.2424 24.375 10.5544C24.3757 10.8116 24.2898 11.0615 24.1313 11.2641Z" fill="#FF9900"/>
</svg>
