<svg width="37" height="37" viewBox="0 0 37 37" fill="none" xmlns="http://www.w3.org/2000/svg">
<g clip-path="url(#clip0_681_594)">
<circle cx="18.5" cy="14.8049" r="5.78125" stroke="#F9F9F9" stroke-width="1.15625"/>
<path d="M30.6406 35.4338C30.6406 37.1096 30.2988 38.2055 29.755 38.9383C29.2163 39.6642 28.4226 40.1101 27.3558 40.3718C26.278 40.6363 24.9676 40.7013 23.4533 40.6946C22.7636 40.6915 22.042 40.6738 21.2881 40.6553C21.2181 40.6536 21.1479 40.6519 21.0774 40.6502C20.2494 40.63 19.3858 40.6105 18.5 40.6105C17.6142 40.6105 16.7506 40.63 15.9226 40.6502C15.8521 40.6519 15.7819 40.6536 15.7119 40.6553C14.958 40.6738 14.2364 40.6915 13.5467 40.6946C12.0324 40.7013 10.722 40.6363 9.64423 40.3718C8.57736 40.1101 7.78368 39.6642 7.24501 38.9383C6.70118 38.2055 6.35938 37.1096 6.35938 35.4338C6.35938 28.7633 11.7924 23.3513 18.5 23.3513C25.2076 23.3513 30.6406 28.7633 30.6406 35.4338Z" stroke="#F9F9F9" stroke-width="1.15625"/>
</g>
<rect x="0.402174" y="0.402174" width="36.1957" height="36.1957" rx="18.0978" stroke="#F9F9F9" stroke-width="0.804348"/>
<defs>
<clipPath id="clip0_681_594">
<rect width="37" height="37" rx="18.5" fill="white"/>
</clipPath>
</defs>
</svg>
