<svg width="16" height="15" viewBox="0 0 16 15" fill="none" xmlns="http://www.w3.org/2000/svg">
<path fill-rule="evenodd" clip-rule="evenodd" d="M7.98144 13C7.98765 13.0042 7.99381 13.0083 7.99994 13.0125C8.0061 13.0083 8.0123 13.0042 8.01854 13C8.01236 13 8.00618 13 8 13C7.99381 13 7.98763 13 7.98144 13ZM9.44097 0.521149C9.99572 0.262121 10.6002 0.126943 11.2124 0.125C11.7845 0.133957 12.3493 0.255527 12.8744 0.482766C13.3995 0.710004 13.8747 1.03846 14.2728 1.44937C14.6709 1.86029 14.9842 2.34561 15.1948 2.87762C15.4054 3.40963 15.509 3.97791 15.4999 4.55C15.4999 10.075 7.99994 14.5 7.99994 14.5C7.99994 14.5 0.499941 10.075 0.499941 4.55C0.490841 3.97791 0.594529 3.40963 0.805085 2.87762C1.01564 2.34561 1.32894 1.86029 1.72708 1.44937C2.12523 1.03846 2.60042 0.710004 3.12552 0.482766C3.65063 0.255527 4.21535 0.133957 4.78744 0.125C5.39968 0.126943 6.00416 0.262121 6.55891 0.521149C7.11366 0.780176 7.60539 1.15684 7.99994 1.625C8.3945 1.15684 8.88622 0.780176 9.44097 0.521149Z" fill="#FF9900"/>
</svg>
