<svg width="28" height="27" viewBox="0 0 28 27" fill="none" xmlns="http://www.w3.org/2000/svg">
<path d="M21.364 9.257C21.364 5.24909 18.0672 2.00003 14.0004 2.00003C9.93353 2.00003 6.63672 5.24909 6.63672 9.257" stroke="#2B2B2B" stroke-width="3"/>
<path d="M26 20.8637C26 22.5103 25.66 23.447 25.2389 24.0088C24.8298 24.5545 24.1987 24.9407 23.1919 25.1852C22.1582 25.4363 20.8578 25.5065 19.2614 25.4995C18.5387 25.4964 17.7816 25.478 16.9795 25.4585C16.9057 25.4567 16.8315 25.4549 16.7569 25.4531C15.878 25.4319 14.9519 25.4111 14 25.4111C13.0481 25.4111 12.122 25.4319 11.2431 25.4531C11.1685 25.4549 11.0943 25.4567 11.0205 25.4585C10.2185 25.478 9.46133 25.4964 8.7386 25.4995C7.1422 25.5065 5.84183 25.4363 4.8081 25.1852C3.80135 24.9407 3.17022 24.5545 2.76115 24.0088C2.34002 23.447 2 22.5103 2 20.8637C2 19.0892 2.39639 16.9041 3.12584 14.8752C3.86345 12.8236 4.87807 11.1077 5.99225 10.1249C6.84442 9.37322 7.85823 9.07172 9.19448 8.98654C9.87381 8.94323 10.6027 8.95777 11.4169 8.98711C11.5781 8.99291 11.7431 8.99934 11.9115 9.00589C12.5721 9.03158 13.2828 9.05922 14 9.05922C14.7387 9.05922 15.469 9.02911 16.1464 9.00118C16.3031 8.99472 16.4571 8.98837 16.6076 8.98254C17.4295 8.95072 18.1638 8.93348 18.8481 8.97505C20.1931 9.05676 21.2086 9.35832 22.0609 10.1191C23.1578 11.0982 24.1596 12.8193 24.8886 14.8784C25.609 16.9134 26 19.1012 26 20.8637Z" stroke="#2B2B2B" stroke-width="3"/>
</svg>
