<svg width="26" height="17" viewBox="0 0 26 17" fill="none" xmlns="http://www.w3.org/2000/svg">
<circle cx="13" cy="8.14124" r="5" fill="#4E765C"/>
<mask id="path-2-inside-1_2199_14044" fill="white">
<path fill-rule="evenodd" clip-rule="evenodd" d="M0 8.14123C3.0184 3.27157 7.71935 0.141235 13 0.141235C18.2806 0.141235 22.9816 3.27157 26 8.14123C22.9816 13.0109 18.2806 16.1412 13 16.1412C7.71935 16.1412 3.0184 13.0109 0 8.14123Z"/>
</mask>
<path d="M0 8.14123L-1.48744 7.21927L-2.05891 8.14123L-1.48744 9.0632L0 8.14123ZM26 8.14123L27.4874 9.0632L28.0589 8.14123L27.4874 7.21927L26 8.14123ZM1.48744 9.0632C4.26537 4.58148 8.46067 1.89124 13 1.89124V-1.60876C6.97804 -1.60876 1.77142 1.96166 -1.48744 7.21927L1.48744 9.0632ZM13 1.89124C17.5393 1.89124 21.7346 4.58148 24.5126 9.0632L27.4874 7.21927C24.2286 1.96166 19.022 -1.60876 13 -1.60876V1.89124ZM24.5126 7.21927C21.7346 11.701 17.5393 14.3912 13 14.3912V17.8912C19.022 17.8912 24.2286 14.3208 27.4874 9.0632L24.5126 7.21927ZM13 14.3912C8.46067 14.3912 4.26537 11.701 1.48744 7.21927L-1.48744 9.0632C1.77142 14.3208 6.97804 17.8912 13 17.8912V14.3912Z" fill="#4E765C" mask="url(#path-2-inside-1_2199_14044)"/>
</svg>
