<svg width="14" height="19" viewBox="0 0 14 19" fill="none" xmlns="http://www.w3.org/2000/svg">
<path d="M12.5503 8.34124C12.3203 8.04123 12.0503 7.78124 11.7903 7.52124C11.1403 6.92124 10.3903 6.49124 9.76034 5.86124C8.30034 4.40124 8.00034 1.99124 8.91034 0.141235C8.00034 0.371235 7.16034 0.891236 6.46034 1.46124C3.92034 3.54124 2.92034 7.21124 4.12034 10.3612C4.16034 10.4612 4.20034 10.5612 4.20034 10.6912C4.20034 10.9112 4.05034 11.1112 3.85034 11.1912C3.63034 11.2912 3.39034 11.2312 3.21034 11.0712C3.15034 11.0212 3.11034 10.9712 3.06034 10.9012C1.96034 9.47124 1.78034 7.42124 2.53034 5.78124C0.890338 7.14124 0.000337526 9.44124 0.140338 11.6112C0.180338 12.1112 0.240338 12.6112 0.410338 13.1112C0.550337 13.7112 0.810338 14.3112 1.13034 14.8412C2.17034 16.5712 4.00034 17.8112 5.97034 18.0612C8.07034 18.3312 10.3203 17.9412 11.9303 16.4612C13.7303 14.8012 14.3803 12.1412 13.4303 9.86124L13.3003 9.60124C13.1003 9.14124 12.8303 8.73124 12.5003 8.35124L12.5503 8.34124ZM9.45034 14.6412C9.17034 14.8812 8.72034 15.1412 8.37034 15.2412C7.27034 15.6412 6.17034 15.0812 5.50034 14.4212C6.69034 14.1412 7.39034 13.2612 7.59034 12.3712C7.76034 11.5712 7.45034 10.9112 7.32034 10.1412C7.20034 9.40124 7.22034 8.77123 7.50034 8.08123C7.67034 8.46124 7.87034 8.84124 8.10034 9.14124C8.86034 10.1412 10.0503 10.5812 10.3003 11.9412C10.3403 12.0812 10.3603 12.2212 10.3603 12.3712C10.3903 13.1912 10.0403 14.0912 9.44034 14.6412H9.45034Z" fill="#4E765C"/>
</svg>
