<svg width="41" height="41" viewBox="0 0 41 41" fill="none" xmlns="http://www.w3.org/2000/svg">
<path d="M6.5 38.5H34.5C36.7091 38.5 38.5 36.7091 38.5 34.5V6.5C38.5 4.29086 36.7091 2.5 34.5 2.5H6.5C4.29086 2.5 2.5 4.29086 2.5 6.5V34.5C2.5 36.7091 4.29086 38.5 6.5 38.5ZM6.5 38.5L28.5 16.5L38.5 26.5M16.5 13.5C16.5 15.1569 15.1569 16.5 13.5 16.5C11.8431 16.5 10.5 15.1569 10.5 13.5C10.5 11.8431 11.8431 10.5 13.5 10.5C15.1569 10.5 16.5 11.8431 16.5 13.5Z" stroke="#F9F9F9" stroke-width="4" stroke-linecap="round" stroke-linejoin="round"/>
</svg>
