<svg width="21" height="21" viewBox="0 0 21 21" fill="none" xmlns="http://www.w3.org/2000/svg">
<path d="M19.1663 15.01V17.76C19.1674 18.0153 19.1151 18.268 19.0128 18.5019C18.9105 18.7358 18.7605 18.9458 18.5724 19.1184C18.3843 19.291 18.1622 19.4224 17.9203 19.5042C17.6785 19.5859 17.4222 19.6163 17.168 19.5933C14.3473 19.2868 11.6377 18.323 9.25715 16.7792C7.04233 15.3718 5.16455 13.494 3.75715 11.2792C2.20797 8.88778 1.24388 6.16509 0.942987 3.33167C0.92008 3.07819 0.950206 2.8227 1.03145 2.5815C1.11269 2.34029 1.24326 2.11864 1.41486 1.93066C1.58645 1.74268 1.79531 1.59249 2.02813 1.48965C2.26095 1.38681 2.51263 1.33358 2.76715 1.33334H5.51715C5.96202 1.32896 6.3933 1.4865 6.7306 1.77658C7.06791 2.06666 7.28822 2.4695 7.35049 2.91001C7.46656 3.79007 7.68182 4.65417 7.99215 5.48584C8.11548 5.81394 8.14218 6.17051 8.06907 6.51331C7.99596 6.85612 7.82611 7.17078 7.57965 7.42001L6.41549 8.58417C7.72041 10.8791 9.62057 12.7792 11.9155 14.0842L13.0797 12.92C13.3289 12.6735 13.6435 12.5037 13.9863 12.4306C14.3291 12.3575 14.6857 12.3842 15.0138 12.5075C15.8455 12.8178 16.7096 13.0331 17.5897 13.1492C18.0349 13.212 18.4416 13.4363 18.7323 13.7794C19.023 14.1225 19.1775 14.5605 19.1663 15.01Z" stroke="#4E765C" stroke-width="1.83333" stroke-linecap="round" stroke-linejoin="round"/>
</svg>
