<svg width="18" height="18" viewBox="0 0 18 18" fill="none" xmlns="http://www.w3.org/2000/svg">
<path fill-rule="evenodd" clip-rule="evenodd" d="M12.969 13.9011C11.6485 15.0253 9.9368 15.7038 8.06667 15.7038C3.88771 15.7038 0.5 12.3161 0.5 8.1371C0.5 3.95815 3.88771 0.570435 8.06667 0.570435C12.2456 0.570435 15.6333 3.95815 15.6333 8.1371C15.6333 9.99593 14.9631 11.6982 13.851 13.0154L17.483 16.6474L16.5992 17.5313L12.969 13.9011ZM14.3833 8.1371C14.3833 11.6257 11.5553 14.4538 8.06667 14.4538C4.57807 14.4538 1.75 11.6257 1.75 8.1371C1.75 4.6485 4.57807 1.82043 8.06667 1.82043C11.5553 1.82043 14.3833 4.6485 14.3833 8.1371Z" fill="#4E765C"/>
</svg>
