<svg width="33" height="26" viewBox="0 0 33 26" fill="none" xmlns="http://www.w3.org/2000/svg">
<path d="M17.5 15.5C17.5 14.8125 18.0625 14.25 18.75 14.25C19.4375 14.25 20 14.8125 20 15.5C20 16.1875 19.4375 16.75 18.75 16.75C18.0625 16.75 17.5 16.1875 17.5 15.5ZM32.5 10.5V20.5H30V21.75C30 23.825 28.325 25.5 26.25 25.5H3.75C1.675 25.5 0 23.825 0 21.75V4.25C0 2.175 1.675 0.5 3.75 0.5H26.25C28.325 0.5 30 2.175 30 4.25V10.5H32.5ZM2.5 5.5H27.5V4.25C27.5 3.5625 26.9375 3 26.25 3H3.75C3.0625 3 2.5 3.5625 2.5 4.25V5.5ZM27.5 20.5H17.5C15.425 20.5 13.75 18.825 13.75 16.75V14.25C13.75 12.175 15.425 10.5 17.5 10.5H27.5V8H2.5V21.75C2.5 22.4375 3.0625 23 3.75 23H26.25C26.9375 23 27.5 22.4375 27.5 21.75V20.5ZM30 13H17.5C16.8125 13 16.25 13.5625 16.25 14.25V16.75C16.25 17.4375 16.8125 18 17.5 18H30V13Z" fill="#FF9900"/>
</svg>
