<svg width="32" height="40" viewBox="0 0 32 40" fill="none" xmlns="http://www.w3.org/2000/svg">
<path d="M16 2.9126C16.7 3.2751 18.0125 3.9626 18.3375 4.1001H18.4C21.7003 5.52787 25.2147 6.39803 28.8 6.6751V25.6626C28.8 32.7751 17.875 36.6626 16 37.2751C14.1125 36.6626 3.2 32.7751 3.2 25.6626V6.9126C6.78431 6.47599 10.2894 5.53764 13.6125 4.1251H13.8L16 2.9126ZM16 0.100098L12.6625 1.8126C9.36788 3.2887 5.84746 4.19734 2.25 4.5001H0.699997V25.6626C0.699997 35.2501 14.95 39.5751 15.5625 39.7626L16 39.8876L16.4375 39.7626C17.0375 39.5751 31.3 35.2501 31.3 25.6626V4.1001L29.6625 4.2001H29.3875C25.9351 4.02065 22.5453 3.20708 19.3875 1.8001C19.175 1.7001 17.85 1.0251 16.7625 0.450098L16 0.100098ZM15.05 25.7876L8.45 19.1751L10.425 17.2001L15.05 21.8126L23.875 12.9876L25.85 14.9751L15.05 25.7876Z" fill="#FF9900"/>
</svg>
