<svg width="28" height="38" viewBox="0 0 28 38" fill="none" xmlns="http://www.w3.org/2000/svg">
<path d="M14 21.5C13.2583 21.5 12.5333 21.7199 11.9166 22.132C11.2999 22.544 10.8193 23.1297 10.5354 23.8149C10.2516 24.5002 10.1774 25.2542 10.3221 25.9816C10.4667 26.709 10.8239 27.3772 11.3483 27.9017C11.8728 28.4261 12.541 28.7833 13.2684 28.9279C13.9958 29.0726 14.7498 28.9984 15.4351 28.7145C16.1203 28.4307 16.706 27.9501 17.118 27.3334C17.5301 26.7167 17.75 25.9917 17.75 25.25C17.75 24.2554 17.3549 23.3016 16.6516 22.5983C15.9484 21.8951 14.9946 21.5 14 21.5ZM14 26.5C13.7528 26.5 13.5111 26.4267 13.3055 26.2893C13.1 26.152 12.9398 25.9568 12.8451 25.7284C12.7505 25.4999 12.7258 25.2486 12.774 25.0061C12.8222 24.7637 12.9413 24.5409 13.1161 24.3661C13.2909 24.1913 13.5137 24.0723 13.7561 24.024C13.9986 23.9758 14.2499 24.0005 14.4784 24.0951C14.7068 24.1898 14.902 24.35 15.0393 24.5555C15.1767 24.7611 15.25 25.0028 15.25 25.25C15.25 25.5815 15.1183 25.8995 14.8839 26.1339C14.6495 26.3683 14.3315 26.5 14 26.5ZM17.0875 7.75H10.9125C10.7329 7.74844 10.5551 7.78559 10.3912 7.85893C10.2272 7.93227 10.081 8.04007 9.9625 8.175C9.84727 8.30979 9.76205 8.46755 9.71248 8.63781C9.66291 8.80807 9.65013 8.98693 9.675 9.1625L10.825 17.9125C10.8647 18.2151 11.0137 18.4928 11.2439 18.6931C11.4742 18.8934 11.7698 19.0026 12.075 19H15.925C16.2302 19.0026 16.5258 18.8934 16.7561 18.6931C16.9863 18.4928 17.1353 18.2151 17.175 17.9125L18.325 9.1625C18.3499 8.98693 18.3371 8.80807 18.2875 8.63781C18.2379 8.46755 18.1527 8.30979 18.0375 8.175C17.919 8.04007 17.7728 7.93227 17.6088 7.85893C17.4449 7.78559 17.2671 7.74844 17.0875 7.75ZM14.8375 16.5H13.1625L12.3375 10.25H15.6625L14.8375 16.5ZM14 0.25C10.3376 0.27643 6.83477 1.75243 4.25792 4.35505C1.68106 6.95768 0.239987 10.475 0.249998 14.1375C0.249998 20.4875 3.875 26.4375 6.9 30.3125C8.72453 32.6233 10.7445 34.7729 12.9375 36.7375L14 37.75L15.1 36.775C17.293 34.8104 19.313 32.6608 21.1375 30.35C24.1625 26.5 27.75 20.4875 27.75 14.1375C27.76 10.475 26.3189 6.95768 23.7421 4.35505C21.1652 1.75243 17.6624 0.27643 14 0.25ZM19.1625 28.7625C17.5947 30.7647 15.8683 32.6374 14 34.3625C12.1349 32.6342 10.4088 30.7617 8.8375 28.7625C6.0375 25.25 2.75 19.775 2.75 14.1375C2.75 11.1439 3.93921 8.27285 6.05603 6.15603C8.17285 4.03922 11.0439 2.85 14.0375 2.85C17.0311 2.85 19.9022 4.03922 22.019 6.15603C24.1358 8.27285 25.325 11.1439 25.325 14.1375C25.25 19.775 21.9625 25.25 19.1625 28.7625Z" fill="#FF9900"/>
</svg>
