<svg width="38" height="28" viewBox="0 0 38 28" fill="none" xmlns="http://www.w3.org/2000/svg">
<path d="M37.5 10.5H34.5225L32.0225 5.5H26.25V0.5H0V3H23.75V20.5H16.25V20.5725C15.8442 20.154 15.3585 19.8212 14.8217 19.594C14.2849 19.3667 13.7079 19.2496 13.125 19.2496C12.5421 19.2496 11.9651 19.3667 11.4283 19.594C10.8915 19.8212 10.4058 20.154 10 20.5725V20.5H7.5V10.5H5V23H8.8125C8.7765 23.2065 8.75561 23.4154 8.75 23.625C8.75 24.7853 9.21094 25.8981 10.0314 26.7186C10.8519 27.5391 11.9647 28 13.125 28C14.2853 28 15.3981 27.5391 16.2186 26.7186C17.0391 25.8981 17.5 24.7853 17.5 23.625C17.4944 23.4154 17.4735 23.2065 17.4375 23H25.0638C25.0278 23.2065 25.0069 23.4154 25.0012 23.625C25.0012 24.7853 25.4622 25.8981 26.2827 26.7186C27.1031 27.5391 28.2159 28 29.3762 28C30.5366 28 31.6494 27.5391 32.4698 26.7186C33.2903 25.8981 33.7513 24.7853 33.7513 23.625C33.7456 23.4154 33.7247 23.2065 33.6888 23H37.5V10.5ZM13.125 25.5C12.7542 25.5 12.3916 25.39 12.0833 25.184C11.775 24.978 11.5346 24.6851 11.3927 24.3425C11.2508 23.9999 11.2137 23.6229 11.286 23.2592C11.3584 22.8955 11.537 22.5614 11.7992 22.2992C12.0614 22.037 12.3955 21.8584 12.7592 21.786C13.1229 21.7137 13.4999 21.7508 13.8425 21.8927C14.1851 22.0346 14.478 22.275 14.684 22.5833C14.89 22.8916 15 23.2542 15 23.625C14.9993 24.1221 14.8016 24.5986 14.4501 24.9501C14.0986 25.3016 13.6221 25.4993 13.125 25.5ZM29.375 25.5C29.0042 25.5 28.6416 25.39 28.3333 25.184C28.025 24.978 27.7846 24.6851 27.6427 24.3425C27.5008 23.9999 27.4637 23.6229 27.536 23.2592C27.6084 22.8955 27.787 22.5614 28.0492 22.2992C28.3114 22.037 28.6455 21.8584 29.0092 21.786C29.3729 21.7137 29.7499 21.7508 30.0925 21.8927C30.4351 22.0346 30.728 22.275 30.934 22.5833C31.14 22.8916 31.25 23.2542 31.25 23.625C31.2493 24.1221 31.0516 24.5986 30.7001 24.9501C30.3486 25.3016 29.8721 25.4993 29.375 25.5ZM35 20.5H32.5V20.5725C32.0942 20.154 31.6085 19.8212 31.0717 19.594C30.5349 19.3667 29.9579 19.2496 29.375 19.2496C28.7921 19.2496 28.2151 19.3667 27.6783 19.594C27.1415 19.8212 26.6558 20.154 26.25 20.5725V8H30.4775L32.9775 13H35V20.5ZM10 8H2.5V5.5H10V8Z" fill="#FF9900"/>
</svg>
