<svg width="46" height="47" viewBox="0 0 46 47" fill="none" xmlns="http://www.w3.org/2000/svg">
<rect y="0.5" width="46" height="46" fill="#4E765C"/>
<path d="M23 14.0783C26.0482 14.0783 26.4639 14.0783 27.7108 14.0783C28.8193 14.0783 29.3735 14.3554 29.7892 14.494C30.3434 14.7711 30.759 14.9096 31.1747 15.3253C31.5904 15.741 31.8675 16.1566 32.006 16.7108C32.1446 17.1265 32.2831 17.6807 32.4217 18.7892C32.4217 20.0361 32.4217 20.3133 32.4217 23.5C32.4217 26.6867 32.4217 26.9639 32.4217 28.2108C32.4217 29.3193 32.1446 29.8735 32.006 30.2892C31.7289 30.8434 31.5904 31.259 31.1747 31.6747C30.759 32.0904 30.3434 32.3675 29.7892 32.506C29.3735 32.6446 28.8193 32.7831 27.7108 32.9217C26.4639 32.9217 26.1867 32.9217 23 32.9217C19.8133 32.9217 19.5361 32.9217 18.2892 32.9217C17.1807 32.9217 16.6265 32.6446 16.2108 32.506C15.6566 32.2289 15.241 32.0904 14.8253 31.6747C14.4096 31.259 14.1325 30.8434 13.994 30.2892C13.8554 29.8735 13.7169 29.3193 13.5783 28.2108C13.5783 26.9639 13.5783 26.6867 13.5783 23.5C13.5783 20.3133 13.5783 20.0361 13.5783 18.7892C13.5783 17.6807 13.8554 17.1265 13.994 16.7108C14.2711 16.1566 14.4096 15.741 14.8253 15.3253C15.241 14.9096 15.6566 14.6325 16.2108 14.494C16.6265 14.3554 17.1807 14.2169 18.2892 14.0783C19.5361 14.0783 19.9518 14.0783 23 14.0783ZM23 12C19.8133 12 19.5361 12 18.2892 12C17.0422 12 16.2108 12.2771 15.5181 12.5542C14.8253 12.8313 14.1325 13.247 13.4398 13.9398C12.747 14.6325 12.4699 15.1867 12.0542 16.0181C11.7771 16.7108 11.6386 17.5422 11.5 18.7892C11.5 20.0361 11.5 20.4518 11.5 23.5C11.5 26.6867 11.5 26.9639 11.5 28.2108C11.5 29.4578 11.7771 30.2892 12.0542 30.9819C12.3313 31.6747 12.747 32.3675 13.4398 33.0602C14.1325 33.753 14.6867 34.0301 15.5181 34.4458C16.2108 34.7229 17.0422 34.8614 18.2892 35C19.5361 35 19.9518 35 23 35C26.0482 35 26.4639 35 27.7108 35C28.9578 35 29.7892 34.7229 30.4819 34.4458C31.1747 34.1687 31.8675 33.753 32.5602 33.0602C33.253 32.3675 33.5301 31.8133 33.9458 30.9819C34.2229 30.2892 34.3614 29.4578 34.5 28.2108C34.5 26.9639 34.5 26.5482 34.5 23.5C34.5 20.4518 34.5 20.0361 34.5 18.7892C34.5 17.5422 34.2229 16.7108 33.9458 16.0181C33.6687 15.3253 33.253 14.6325 32.5602 13.9398C31.8675 13.247 31.3133 12.9699 30.4819 12.5542C29.7892 12.2771 28.9578 12.1386 27.7108 12C26.4639 12 26.1867 12 23 12Z" fill="#F9F9F9"/>
<path d="M23 17.5422C19.6747 17.5422 17.0422 20.1747 17.0422 23.5C17.0422 26.8253 19.6747 29.4578 23 29.4578C26.3253 29.4578 28.9578 26.8253 28.9578 23.5C28.9578 20.1747 26.3253 17.5422 23 17.5422ZM23 27.3795C20.9217 27.3795 19.1205 25.7169 19.1205 23.5C19.1205 21.4217 20.7831 19.6205 23 19.6205C25.0783 19.6205 26.8795 21.2831 26.8795 23.5C26.8795 25.5783 25.0783 27.3795 23 27.3795Z" fill="#F9F9F9"/>
<path d="M29.0964 18.7892C29.8616 18.7892 30.4819 18.1688 30.4819 17.4036C30.4819 16.6384 29.8616 16.0181 29.0964 16.0181C28.3312 16.0181 27.7108 16.6384 27.7108 17.4036C27.7108 18.1688 28.3312 18.7892 29.0964 18.7892Z" fill="#F9F9F9"/>
</svg>
