<svg width="37" height="37" viewBox="0 0 37 37" fill="none" xmlns="http://www.w3.org/2000/svg">
<rect width="37" height="37" rx="18.5" fill="#F9F9F9"/>
<mask id="path-2-inside-1_688_3938" fill="white">
<path fill-rule="evenodd" clip-rule="evenodd" d="M22.0482 15.2895C21.6326 16.8602 20.2016 18.0181 18.5002 18.0181C16.7987 18.0181 15.3677 16.8602 14.9521 15.2894C16.0383 14.8135 17.2384 14.5493 18.5002 14.5493C19.762 14.5493 20.9621 14.8135 22.0482 15.2895ZM23.0934 15.8335C23.2446 15.3656 23.3263 14.8665 23.3263 14.3483C23.3263 11.6829 21.1656 9.52222 18.5002 9.52222C15.8348 9.52222 13.6741 11.6829 13.6741 14.3483C13.6741 14.8665 13.7558 15.3656 13.9069 15.8335C11.356 17.386 9.65234 20.1926 9.65234 23.3972C9.65234 27.6206 12.6116 27.5477 16.5697 27.4501C17.1911 27.4348 17.8371 27.4189 18.5002 27.4189C19.1632 27.4189 19.8092 27.4348 20.4306 27.4501C24.3888 27.5477 27.348 27.6206 27.348 23.3972C27.348 20.1926 25.6444 17.386 23.0934 15.8335ZM23.0934 15.8335C22.7589 15.63 22.4099 15.448 22.0482 15.2895C22.1277 14.9891 22.17 14.6736 22.17 14.3483C22.17 12.3215 20.527 10.6785 18.5002 10.6785C16.4734 10.6785 14.8303 12.3215 14.8303 14.3483C14.8303 14.6736 14.8727 14.9891 14.9521 15.2894C14.5905 15.4479 14.2414 15.6299 13.9069 15.8335C14.5333 17.7722 16.353 19.1744 18.5002 19.1744C20.6474 19.1744 22.467 17.7722 23.0934 15.8335Z"/>
</mask>
<path fill-rule="evenodd" clip-rule="evenodd" d="M22.0482 15.2895C21.6326 16.8602 20.2016 18.0181 18.5002 18.0181C16.7987 18.0181 15.3677 16.8602 14.9521 15.2894C16.0383 14.8135 17.2384 14.5493 18.5002 14.5493C19.762 14.5493 20.9621 14.8135 22.0482 15.2895ZM23.0934 15.8335C23.2446 15.3656 23.3263 14.8665 23.3263 14.3483C23.3263 11.6829 21.1656 9.52222 18.5002 9.52222C15.8348 9.52222 13.6741 11.6829 13.6741 14.3483C13.6741 14.8665 13.7558 15.3656 13.9069 15.8335C11.356 17.386 9.65234 20.1926 9.65234 23.3972C9.65234 27.6206 12.6116 27.5477 16.5697 27.4501C17.1911 27.4348 17.8371 27.4189 18.5002 27.4189C19.1632 27.4189 19.8092 27.4348 20.4306 27.4501C24.3888 27.5477 27.348 27.6206 27.348 23.3972C27.348 20.1926 25.6444 17.386 23.0934 15.8335ZM23.0934 15.8335C22.7589 15.63 22.4099 15.448 22.0482 15.2895C22.1277 14.9891 22.17 14.6736 22.17 14.3483C22.17 12.3215 20.527 10.6785 18.5002 10.6785C16.4734 10.6785 14.8303 12.3215 14.8303 14.3483C14.8303 14.6736 14.8727 14.9891 14.9521 15.2894C14.5905 15.4479 14.2414 15.6299 13.9069 15.8335C14.5333 17.7722 16.353 19.1744 18.5002 19.1744C20.6474 19.1744 22.467 17.7722 23.0934 15.8335Z" fill="#F9F9F9"/>
<path d="M16.5697 27.4501L16.5982 28.606H16.5982L16.5697 27.4501ZM20.4306 27.4501L20.4021 28.606H20.4022L20.4306 27.4501ZM18.5002 19.1744C20.7393 19.1744 22.6196 17.6505 23.166 15.5852L20.9304 14.9937C20.6457 16.07 19.664 16.8619 18.5002 16.8619V19.1744ZM13.8343 15.5852C14.3808 17.6505 16.261 19.1744 18.5002 19.1744V16.8619C17.3364 16.8619 16.3547 16.07 16.0699 14.9937L13.8343 15.5852ZM15.4162 16.3485C16.3588 15.9354 17.4011 15.7056 18.5002 15.7056V13.3931C17.0756 13.3931 15.7177 13.6915 14.488 14.2304L15.4162 16.3485ZM18.5002 15.7056C19.5992 15.7056 20.6415 15.9354 21.5841 16.3485L22.5123 14.2304C21.2826 13.6915 19.9247 13.3931 18.5002 13.3931V15.7056ZM24.1937 16.189C24.3815 15.6077 24.4825 14.9887 24.4825 14.3483H22.17C22.17 14.7444 22.1077 15.1236 21.9932 15.478L24.1937 16.189ZM24.4825 14.3483C24.4825 11.0444 21.8041 8.36597 18.5002 8.36597V10.6785C20.527 10.6785 22.17 12.3215 22.17 14.3483H24.4825ZM18.5002 8.36597C15.1962 8.36597 12.5178 11.0444 12.5178 14.3483H14.8303C14.8303 12.3215 16.4734 10.6785 18.5002 10.6785V8.36597ZM12.5178 14.3483C12.5178 14.9886 12.6189 15.6077 12.8067 16.189L15.0072 15.478C14.8927 15.1236 14.8303 14.7443 14.8303 14.3483H12.5178ZM10.8086 23.3972C10.8086 20.6127 12.2874 18.1726 14.508 16.8212L13.3058 14.8458C10.4245 16.5993 8.49609 19.7725 8.49609 23.3972H10.8086ZM16.5412 26.2942C15.5398 26.3189 14.6613 26.3399 13.8819 26.2974C13.0993 26.2548 12.5045 26.1511 12.0589 25.9716C11.6413 25.8033 11.3673 25.5747 11.177 25.2463C10.9731 24.8944 10.8086 24.3283 10.8086 23.3972H8.49609C8.49609 24.5778 8.70145 25.5863 9.17611 26.4056C9.66435 27.2483 10.3775 27.7872 11.1945 28.1165C11.9836 28.4344 12.8706 28.5582 13.7561 28.6065C14.6448 28.6549 15.6206 28.6301 16.5982 28.606L16.5412 26.2942ZM18.5002 26.2626C17.8206 26.2626 17.1606 26.279 16.5412 26.2942L16.5982 28.606C17.2215 28.5907 17.8536 28.5751 18.5002 28.5751V26.2626ZM20.4591 26.2942C19.8397 26.279 19.1797 26.2626 18.5002 26.2626V28.5751C19.1467 28.5751 19.7788 28.5907 20.4021 28.606L20.4591 26.2942ZM26.1917 23.3972C26.1917 24.3283 26.0272 24.8944 25.8233 25.2463C25.633 25.5747 25.359 25.8033 24.9414 25.9716C24.4959 26.1511 23.901 26.2548 23.1184 26.2974C22.339 26.3399 21.4606 26.3189 20.4591 26.2942L20.4022 28.606C21.3798 28.6301 22.3556 28.6549 23.2442 28.6065C24.1297 28.5582 25.0168 28.4344 25.8058 28.1165C26.6228 27.7872 27.336 27.2483 27.8242 26.4056C28.2989 25.5863 28.5042 24.5778 28.5042 23.3972H26.1917ZM22.4923 16.8212C24.7129 18.1726 26.1917 20.6127 26.1917 23.3972H28.5042C28.5042 19.7725 26.5758 16.5993 23.6945 14.8458L22.4923 16.8212ZM21.5841 16.3485C21.8983 16.4861 22.2016 16.6443 22.4923 16.8212L23.6945 14.8458C23.3163 14.6156 22.9215 14.4098 22.5123 14.2304L21.5841 16.3485ZM23.166 15.5852C23.2708 15.1892 23.3263 14.7743 23.3263 14.3483H21.0138C21.0138 14.5729 20.9846 14.789 20.9304 14.9937L23.166 15.5852ZM23.3263 14.3483C23.3263 11.6829 21.1656 9.52222 18.5002 9.52222V11.8347C19.8884 11.8347 21.0138 12.9601 21.0138 14.3483H23.3263ZM18.5002 9.52222C15.8348 9.52222 13.6741 11.6829 13.6741 14.3483H15.9866C15.9866 12.9601 17.112 11.8347 18.5002 11.8347V9.52222ZM13.6741 14.3483C13.6741 14.7743 13.7296 15.1892 13.8343 15.5852L16.0699 14.9937C16.0158 14.789 15.9866 14.5729 15.9866 14.3483H13.6741ZM14.508 16.8212C14.7988 16.6443 15.1021 16.4861 15.4162 16.3485L14.488 14.2304C14.0788 14.4098 13.684 14.6156 13.3058 14.8458L14.508 16.8212ZM12.8067 16.189C13.5828 18.591 15.8368 20.3306 18.5002 20.3306V18.0181C16.8692 18.0181 15.4839 16.9534 15.0072 15.478L12.8067 16.189ZM18.5002 20.3306C21.1635 20.3306 23.4176 18.591 24.1937 16.189L21.9932 15.478C21.5165 16.9534 20.1312 18.0181 18.5002 18.0181V20.3306Z" fill="#4E765C" mask="url(#path-2-inside-1_688_3938)"/>
</svg>
