<svg width="27" height="34" viewBox="0 0 27 34" fill="none" xmlns="http://www.w3.org/2000/svg">
<circle cx="13.5" cy="6.80493" r="5.78125" stroke="#F9F9F9" stroke-width="1.15625"/>
<path d="M25.6406 27.4338C25.6406 29.1096 25.2988 30.2055 24.755 30.9383C24.2163 31.6642 23.4226 32.1101 22.3558 32.3718C21.278 32.6363 19.9676 32.7013 18.4533 32.6946C17.7636 32.6915 17.042 32.6738 16.2881 32.6553C16.2181 32.6536 16.1479 32.6519 16.0774 32.6502C15.2494 32.63 14.3858 32.6105 13.5 32.6105C12.6142 32.6105 11.7506 32.63 10.9226 32.6502C10.8521 32.6519 10.7819 32.6536 10.7119 32.6553C9.95805 32.6738 9.23641 32.6915 8.54672 32.6946C7.03238 32.7013 5.72203 32.6363 4.64423 32.3718C3.57736 32.1101 2.78368 31.6642 2.24501 30.9383C1.70118 30.2055 1.35938 29.1096 1.35938 27.4338C1.35938 20.7633 6.79242 15.3513 13.5 15.3513C20.2076 15.3513 25.6406 20.7633 25.6406 27.4338Z" stroke="#F9F9F9" stroke-width="1.15625"/>
</svg>
