<svg width="18" height="17" viewBox="0 0 18 17" fill="none" xmlns="http://www.w3.org/2000/svg">
<path fill-rule="evenodd" clip-rule="evenodd" d="M12.969 13.3306C11.6485 14.4548 9.9368 15.1332 8.06667 15.1332C3.88771 15.1332 0.5 11.7455 0.5 7.56654C0.5 3.38759 3.88771 -0.00012207 8.06667 -0.00012207C12.2456 -0.00012207 15.6333 3.38759 15.6333 7.56654C15.6333 9.42537 14.9631 11.1276 13.851 12.4449L17.483 16.0769L16.5992 16.9608L12.969 13.3306ZM14.3833 7.56654C14.3833 11.0551 11.5553 13.8832 8.06667 13.8832C4.57807 13.8832 1.75 11.0551 1.75 7.56654C1.75 4.07795 4.57807 1.24988 8.06667 1.24988C11.5553 1.24988 14.3833 4.07795 14.3833 7.56654Z" fill="#F9F9F9"/>
</svg>
