<svg width="23" height="22" viewBox="0 0 23 22" fill="none" xmlns="http://www.w3.org/2000/svg">
<path fill-rule="evenodd" clip-rule="evenodd" d="M17.2459 17.7799C16.8036 17.3376 16.0999 17.3171 15.578 17.6618C14.1445 18.6087 12.4266 19.16 10.58 19.16C5.56525 19.16 1.5 15.0947 1.5 10.08C1.5 5.06522 5.56525 0.999969 10.58 0.999969C15.5947 0.999969 19.66 5.06522 19.66 10.08C19.66 11.9147 19.1158 13.6223 18.1801 15.0503C17.8383 15.5719 17.8602 16.2729 18.3011 16.7138L21.3493 19.762C21.6422 20.0549 21.6422 20.5298 21.3493 20.8227C21.0564 21.1156 20.5816 21.1156 20.2887 20.8227L17.2459 17.7799ZM18.16 10.08C18.16 14.2663 14.7663 17.66 10.58 17.66C6.39368 17.66 3 14.2663 3 10.08C3 5.89365 6.39368 2.49997 10.58 2.49997C14.7663 2.49997 18.16 5.89365 18.16 10.08Z" fill="#2B2B2B" stroke="#2B2B2B" stroke-width="1.5"/>
</svg>
