<svg width="36" height="36" viewBox="0 0 36 36" fill="none" xmlns="http://www.w3.org/2000/svg">
<path d="M18 35.5C14.5388 35.5 11.1554 34.4737 8.27752 32.5507C5.39966 30.6278 3.15664 27.8947 1.83211 24.697C0.507575 21.4993 0.161016 17.9806 0.836258 14.5859C1.5115 11.1913 3.17821 8.07306 5.62563 5.62564C8.07305 3.17822 11.1913 1.51151 14.5859 0.836265C17.9806 0.161024 21.4993 0.507582 24.697 1.83212C27.8947 3.15665 30.6278 5.39967 32.5507 8.27753C34.4736 11.1554 35.5 14.5388 35.5 18C35.4934 22.6393 33.6475 27.0866 30.3671 30.3671C27.0866 33.6475 22.6393 35.4934 18 35.5ZM18 3.00001C15.0333 3.00001 12.1332 3.87974 9.66645 5.52796C7.19971 7.17618 5.27712 9.51887 4.14181 12.2598C3.00649 15.0006 2.70944 18.0166 3.28822 20.9264C3.867 23.8361 5.29561 26.5088 7.3934 28.6066C9.49119 30.7044 12.1639 32.133 15.0736 32.7118C17.9834 33.2906 20.9994 32.9935 23.7403 31.8582C26.4811 30.7229 28.8238 28.8003 30.472 26.3336C32.1203 23.8668 33 20.9667 33 18C32.9967 14.0228 31.4153 10.2094 28.6029 7.39706C25.7906 4.58473 21.9772 3.00332 18 3.00001ZM28.475 23.875L19.25 17.9375V9.25001H16.75V19.3125L27.125 25.975L28.475 23.875Z" fill="#FF9900"/>
</svg>
